<?xml version="1.0" encoding="utf-8"?>
<!-- Generator: Adobe Illustrator 21.1.0, SVG Export Plug-In . SVG Version: 6.00 Build 0)  -->
<svg version="1.1" id="Calque_1" xmlns="http://www.w3.org/2000/svg" xmlns:xlink="http://www.w3.org/1999/xlink" x="0px" y="0px"
	 viewBox="0 0 1016 224" style="enable-background:new 0 0 1016 224;" xml:space="preserve">
<style type="text/css">
	.st0{fill:#FFFFFF;}
</style>
<g>
	<polygon class="st0" points="37.1,70.2 20.8,29.7 7.9,29.7 37.1,99.4 66.1,29.7 53.3,29.7 	"/>
	<rect x="103.2" y="29.7" class="st0" width="11.4" height="64.3"/>
	<path class="st0" d="M197.1,36.1c-6.9-5.1-14.4-6.4-23.5-6.4h-14.3V94h14.1c9.2,0,15.9-1.1,23.1-6.2c8.3-5.9,12.9-15.1,12.9-25.9
		C209.4,51.4,204.9,42,197.1,36.1z M189.7,78.4c-4.8,3.6-10.6,4.2-15.5,4.2h-2.6V41.1h2.6c4.7,0,10.7,0.6,15.6,4.2
		c3.7,2.8,7.7,8.6,7.7,16.7C197.5,71.4,192,76.6,189.7,78.4z"/>
	<polygon class="st0" points="287.1,82.6 262.7,82.6 262.7,65.5 286.3,65.5 286.3,54.1 262.7,54.1 262.7,41.1 287.1,41.1 
		287.1,29.7 251.3,29.7 251.3,94 287.1,94 	"/>
	<path class="st0" d="M420.2,87.8c8.3-5.9,12.9-15,12.9-25.8c0-10.5-4.5-20-12.3-25.9c-6.9-5.1-14.4-6.4-23.5-6.4h-14.2V94h14
		C406.3,94,413,92.9,420.2,87.8z M395.4,41.1h2.5c4.7,0,10.7,0.6,15.6,4.2c3.7,2.8,7.7,8.6,7.7,16.7c0,9.4-5.5,14.7-7.8,16.5
		c-4.8,3.6-10.6,4.2-15.5,4.2h-2.5L395.4,41.1L395.4,41.1z"/>
	<path class="st0" d="M498.8,67.2c7.9-2.5,12.8-9.3,12.8-17.8c0-3.1-0.7-10.9-7.8-15.6c-4-2.7-8.9-4-16.8-4h-11.8v64.3h11.4V69.2
		L503.9,94h14.4L498.8,67.2z M488.3,58.2h-1.8V41.1h2c7.7,0,11.5,2.8,11.5,8.3C500,53.4,498,58.2,488.3,58.2z"/>
	<polygon class="st0" points="592.3,82.6 567.9,82.6 567.9,65.5 591.5,65.5 591.5,54.1 567.9,54.1 567.9,41.1 592.3,41.1 
		592.3,29.7 556.5,29.7 556.5,94 592.3,94 	"/>
	<path class="st0" d="M657.4,54.9l-6.2-2.4c-3.9-1.5-5.8-3.6-5.8-6.3c0-4.5,4-6.1,7.4-6.1c2.4,0,4.2,0.6,5.8,1.9
		c1.1,1,1.9,2,2.4,3.3l0.6,1.4l9.8-5.8l-0.6-1.1c-1.2-2.4-3-4.8-5-6.5c-3.4-2.9-7.8-4.5-13.1-4.5c-12.6,0-19.2,8.8-19.2,17.4
		c0,7.5,4.3,12.9,13.3,16.7l5.9,2.5c4.2,1.7,8.1,4,8.1,9.3c0,5.2-3.7,9-8.9,9c-2.9,0-5.2-1.1-6.9-3.2c-1.5-1.9-2.2-4.6-2.2-7v-1.5
		l-12,2.6l0.1,1.1c0.4,4.9,2.2,9,5.5,12.7c4,4.5,8.9,6.6,15.4,6.6c12.4,0,21-8.6,21-20.9C672.6,65.3,667.8,59.1,657.4,54.9z"/>
	<path class="st0" d="M750.4,74.1c0-8.9-4.8-15-15.2-19.2l-6.2-2.4c-3.9-1.5-5.8-3.6-5.8-6.3c0-4.5,4-6.1,7.4-6.1
		c2.4,0,4.2,0.6,5.8,1.9c1.1,1,1.9,2,2.4,3.3l0.6,1.4l9.8-5.8l-0.6-1.1c-1.2-2.4-3-4.8-5-6.5c-3.4-2.9-7.8-4.5-13.1-4.5
		c-12.6,0-19.2,8.8-19.2,17.4c0,7.5,4.3,12.9,13.3,16.7l5.9,2.5c4.2,1.7,8.1,4,8.1,9.3c0,5.2-3.7,9-8.9,9c-2.9,0-5.5-1.1-7.2-3.2
		c-1.5-1.9-2.5-4.6-2.5-7v-1.5l-11.7,2.6l0.2,1.1c0.4,4.9,2.3,9,5.5,12.7c4,4.5,9,6.6,15.4,6.6C741.8,95,750.4,86.4,750.4,74.1z"/>
	<rect x="792.5" y="29.7" class="st0" width="11.4" height="64.3"/>
	<path class="st0" d="M981.3,59.8v10.6h14.9c-0.6,3.3-2.1,5.9-4.6,8.3c-3.5,3.4-7.6,5.1-12.8,5.1c-6.1,0-10.7-1.9-14.4-5.7
		c-3.8-4.1-6-9.8-6-15.7c0-6.3,2.4-12.5,6.2-16.3c2.7-2.7,7.6-5.9,15.3-5.9c4.1,0,7.3,0.8,10.3,2.5c2.5,1.4,5.2,3.9,7.1,6.6l0.7,1.1
		l9.4-6.7l-0.7-1c-1.7-2.7-4.9-6.5-10.3-9.6c-4.7-2.6-10.4-4-16.6-4c-9.1,0-18.1,3.6-23.9,9.5c-5.8,5.8-9.3,14.6-9.3,23.8
		c0,9.2,3.3,17.7,9.4,24c5.9,6,12.5,8.7,21.7,8.7c9,0,16.1-2.7,21.7-8.1c6.2-6,9.5-14.9,9.5-25.7v-1.4L981.3,59.8L981.3,59.8z"/>
	<path class="st0" d="M345.4,64.5c0-5.1-4.2-9.3-9.3-9.3c-5.1,0-9.3,4.2-9.3,9.3c0,5.1,4.2,9.3,9.3,9.3
		C341.3,73.8,345.4,69.6,345.4,64.5z"/>
	<polygon class="st0" points="892.6,70.5 854.2,29.7 848.7,29.7 848.7,94 860.1,94 860.1,52.9 899.6,94 904.8,94 904.8,29.7 
		892.6,29.7 	"/>
	<polygon class="st0" points="272.5,196.5 278.2,196.5 278.2,181.1 288.8,181.1 288.8,176.2 278.2,176.2 278.2,168 289.6,168 
		289.6,163.2 272.5,163.2 	"/>
	<path class="st0" d="M293.5,196.5h5.5l3.7-8.1h14.2l3.5,8.1h5.5L310,161.4L293.5,196.5z M304.6,183.5l5.1-11.2l4.9,11.2H304.6z"/>
	<path class="st0" d="M343.6,176.5l-3.3-1.3c-2.4-1-3.6-2.3-3.6-4c0-1.1,0.4-2,1.2-2.8c0.8-0.7,2-1.1,3.4-1.1c1.4,0,2.6,0.4,3.6,1.2
		c0.7,0.6,1.1,1.3,1.5,2.1l4.1-2.4c-0.7-1.3-1.5-2.4-2.5-3.3c-1.8-1.5-4-2.2-6.7-2.2c-3,0-5.4,0.9-7.1,2.6c-1.7,1.7-2.6,3.7-2.6,6.2
		c0,3.7,2.3,6.5,6.8,8.4l3.2,1.3c1.4,0.6,2.6,1.3,3.4,2.1c0.9,0.8,1.3,2,1.3,3.5c0,1.6-0.5,3-1.5,4c-1.1,1.1-2.4,1.5-3.9,1.5
		c-1.8,0-3.3-0.7-4.3-2c-0.9-1.2-1.4-2.6-1.4-4.2l-5,1.1c0.2,2.4,1.1,4.6,2.8,6.4c2,2.2,4.6,3.3,7.8,3.3c3.1,0,5.7-1,7.6-2.9
		c2-2,3-4.6,3-7.6C351.4,181.9,348.8,178.6,343.6,176.5z"/>
	<polygon class="st0" points="380.7,176.2 366.1,176.2 366.1,163.2 361.2,163.2 361.2,196.5 366.1,196.5 366.1,181.1 380.7,181.1 
		380.7,196.5 385.6,196.5 385.6,163.2 380.7,163.2 	"/>
	<rect x="397" y="163.2" class="st0" width="4.9" height="33.4"/>
	<path class="st0" d="M428.8,162.5c-5,0-9,1.6-12.3,4.9s-4.9,7.3-4.9,12.3c0,4.9,1.6,9,4.9,12.3c3.3,3.3,7.4,4.9,12.3,4.9
		c5,0,9-1.6,12.3-4.9s4.9-7.3,4.9-12.3c0-4.9-1.6-9-4.9-12.3C437.9,164.1,433.8,162.5,428.8,162.5z M437.6,188.7
		c-2.3,2.4-5.2,3.5-8.7,3.5c-3.6,0-6.4-1.1-8.7-3.5c-2.3-2.4-3.4-5.4-3.4-9s1.1-6.7,3.4-9c2.3-2.4,5.2-3.5,8.7-3.5
		c3.6,0,6.4,1.1,8.7,3.5s3.4,5.4,3.4,9S439.9,186.3,437.6,188.7z"/>
	<polygon class="st0" points="480,186 455.6,160.9 455.6,196.5 460.5,196.5 460.5,173.1 484.9,198.2 484.9,163.2 480,163.2 	"/>
	<polygon class="st0" points="507.7,168 515,168 515,196.5 520.7,196.5 520.7,168 528,168 528,163.2 507.7,163.2 	"/>
	<path class="st0" d="M550.4,162.5c-5,0-9,1.6-12.3,4.9s-4.9,7.3-4.9,12.3c0,4.9,1.6,9,4.9,12.3c3.3,3.3,7.4,4.9,12.3,4.9
		c5,0,9-1.6,12.3-4.9s4.9-7.3,4.9-12.3c0-4.9-1.6-9-4.9-12.3C559.4,164.1,555.4,162.5,550.4,162.5z M559.1,188.7
		c-2.3,2.4-5.2,3.5-8.7,3.5c-3.6,0-6.4-1.1-8.7-3.5s-3.4-5.4-3.4-9s1.1-6.7,3.4-9s5.2-3.5,8.7-3.5c3.6,0,6.4,1.1,8.7,3.5
		c2.3,2.4,3.4,5.4,3.4,9S561.4,186.3,559.1,188.7z"/>
	<path class="st0" d="M594.8,183.5h8c-0.2,2.4-1.1,4.1-2.8,5.7c-2,2-4.5,2.9-7.4,2.9c-3.4,0-6.2-1.1-8.3-3.3c-2.3-2.4-3.4-5.5-3.4-9
		c0-1.8,0.3-3.5,1-5.1s1.5-3,2.6-4.2c2.3-2.3,5.2-3.4,8.7-3.4c2.3,0,4.2,0.5,5.9,1.5c1.5,0.9,2.8,2.1,4.1,3.7l4-2.8
		c-1.3-2-3.1-3.7-5.4-5c-2.4-1.4-5.4-2.1-8.6-2.1c-2.4,0-4.8,0.5-7,1.4c-2.2,0.9-4,2.1-5.5,3.6c-1.4,1.4-2.6,3.3-3.5,5.4
		c-0.9,2.2-1.3,4.5-1.3,7c0,5,1.6,9.1,4.9,12.5c2.9,3,6.7,4.6,11.2,4.6c4.6,0,8.1-1.4,11.1-4.2c3.3-3.2,4.7-7.6,4.7-13.4v-0.7h-13
		L594.8,183.5L594.8,183.5z"/>
	<polygon class="st0" points="617.6,196.5 636.3,196.5 636.3,191.6 623.2,191.6 623.2,181.1 635.5,181.1 635.5,176.2 623.2,176.2 
		623.2,168 636.3,168 636.3,163.2 617.6,163.2 	"/>
	<polygon class="st0" points="642.8,168 650.1,168 650.1,196.5 655,196.5 655,168 663.1,168 663.1,163.2 642.8,163.2 	"/>
	<polygon class="st0" points="690,176.2 676.1,176.2 676.1,163.2 670.4,163.2 670.4,196.5 676.1,196.5 676.1,181.1 690,181.1 
		690,196.5 694.9,196.5 694.9,163.2 690,163.2 	"/>
	<polygon class="st0" points="706.3,196.5 725,196.5 725,191.6 711.1,191.6 711.1,181.1 724.2,181.1 724.2,176.2 711.1,176.2 
		711.1,168 725,168 725,163.2 706.3,163.2 	"/>
	<path class="st0" d="M751.1,178.9c1.3-1.6,2-3.7,2-6c0-3.4-1.3-6-3.9-7.7c-2-1.3-4.8-1.9-8.7-1.9h-5.7v33.4h4.9v-13.8h0.9l9.5,13.8
		h6.1l-10.3-14.3C748,181.7,749.7,180.5,751.1,178.9z M742.5,178.4c-0.4,0-0.9,0.2-1.3,0.2h-1.5V168h1.7c4.6,0,6.9,1.5,6.9,5
		c0,1-0.2,1.8-0.7,2.5c-0.4,0.7-0.9,1.2-1.5,1.5s-1.2,0.7-2,0.9C743.5,178.2,742.9,178.4,742.5,178.4z"/>
</g>
</svg>
